# xmcd
# 
# Track frame offsets:
#     150
#     27187
#     48620
#     77362
#     101280
#     125907
#     159080
#     182177
#     207972
#     232625
# 
# Disc length: 3453
# 
# Revision: 0
# Processed by: cddbd v1.5.2PL0 Copyright (c) Steve Scherf et al.
# Submitted via: fre:ac v1.0.31
# 
DISCID=710d7b0a
DTITLE=Grover Washington, Jr. - Anthology Of Grover Washington Jr.
DYEAR=0
DGENRE=Jazz
TTITLE0=The Best Is Yet To Come
TTITLE1=East River Drive
TTITLE2=Be Mine (Tonight)
TTITLE3=Can You Dig It
TTITLE4=In The Name Of Love
TTITLE5=Just The Two Of Us
TTITLE6=Jammin'
TTITLE7=Little Black Samba
TTITLE8=Jet Stream
TTITLE9=Let It Flow (For Dr.J)
EXTD=
EXTT0=
EXTT1=
EXTT2=
EXTT3=
EXTT4=
EXTT5=
EXTT6=
EXTT7=
EXTT8=
EXTT9=
PLAYORDER=
